<mxfile host="app.diagrams.net" modified="2021-02-16T13:57:19.324Z" agent="5.0 (Windows NT 10.0; Win64; x64) AppleWebKit/537.36 (KHTML, like Gecko) Chrome/88.0.4324.150 Safari/537.36" etag="pj7rI-r_pWk5rESPA0R-" version="14.2.7" type="github">
  <diagram id="_fHgxrKt_Xnul5mjqcJg" name="Page-1">
    <mxGraphModel dx="1038" dy="548" grid="1" gridSize="10" guides="1" tooltips="1" connect="1" arrows="1" fold="1" page="1" pageScale="1" pageWidth="827" pageHeight="1169" math="0" shadow="0">
      <root>
        <mxCell id="0" />
        <mxCell id="1" parent="0" />
        <mxCell id="to91vzmQ1d29D6rPc9sh-10" style="edgeStyle=orthogonalEdgeStyle;rounded=0;orthogonalLoop=1;jettySize=auto;html=1;exitX=0.5;exitY=1;exitDx=0;exitDy=0;entryX=0.5;entryY=0;entryDx=0;entryDy=0;" edge="1" parent="1" source="to91vzmQ1d29D6rPc9sh-2" target="to91vzmQ1d29D6rPc9sh-9">
          <mxGeometry relative="1" as="geometry" />
        </mxCell>
        <mxCell id="to91vzmQ1d29D6rPc9sh-2" value="Input alder" style="rounded=1;whiteSpace=wrap;html=1;" vertex="1" parent="1">
          <mxGeometry x="279" y="150" width="120" height="60" as="geometry" />
        </mxCell>
        <mxCell id="to91vzmQ1d29D6rPc9sh-32" style="edgeStyle=orthogonalEdgeStyle;rounded=0;orthogonalLoop=1;jettySize=auto;html=1;exitX=0;exitY=1;exitDx=0;exitDy=0;entryX=0.75;entryY=0;entryDx=0;entryDy=0;" edge="1" parent="1" source="to91vzmQ1d29D6rPc9sh-3" target="to91vzmQ1d29D6rPc9sh-4">
          <mxGeometry relative="1" as="geometry" />
        </mxCell>
        <mxCell id="to91vzmQ1d29D6rPc9sh-34" style="edgeStyle=orthogonalEdgeStyle;rounded=0;orthogonalLoop=1;jettySize=auto;html=1;exitX=0.75;exitY=1;exitDx=0;exitDy=0;" edge="1" parent="1" source="to91vzmQ1d29D6rPc9sh-3" target="to91vzmQ1d29D6rPc9sh-33">
          <mxGeometry relative="1" as="geometry" />
        </mxCell>
        <mxCell id="to91vzmQ1d29D6rPc9sh-3" value="Input dager" style="rounded=1;whiteSpace=wrap;html=1;" vertex="1" parent="1">
          <mxGeometry x="429" y="150" width="120" height="60" as="geometry" />
        </mxCell>
        <mxCell id="to91vzmQ1d29D6rPc9sh-18" style="edgeStyle=orthogonalEdgeStyle;rounded=0;orthogonalLoop=1;jettySize=auto;html=1;exitX=0;exitY=0.5;exitDx=0;exitDy=0;entryX=0.5;entryY=0;entryDx=0;entryDy=0;" edge="1" parent="1" source="to91vzmQ1d29D6rPc9sh-4" target="to91vzmQ1d29D6rPc9sh-17">
          <mxGeometry relative="1" as="geometry" />
        </mxCell>
        <mxCell id="to91vzmQ1d29D6rPc9sh-28" style="edgeStyle=orthogonalEdgeStyle;rounded=0;orthogonalLoop=1;jettySize=auto;html=1;exitX=0.75;exitY=1;exitDx=0;exitDy=0;entryX=0.25;entryY=0;entryDx=0;entryDy=0;" edge="1" parent="1" source="to91vzmQ1d29D6rPc9sh-4" target="to91vzmQ1d29D6rPc9sh-15">
          <mxGeometry relative="1" as="geometry" />
        </mxCell>
        <mxCell id="to91vzmQ1d29D6rPc9sh-4" value="Totalpris = pris x antall dager" style="rounded=0;whiteSpace=wrap;html=1;" vertex="1" parent="1">
          <mxGeometry x="339" y="350" width="120" height="60" as="geometry" />
        </mxCell>
        <mxCell id="to91vzmQ1d29D6rPc9sh-11" style="edgeStyle=orthogonalEdgeStyle;rounded=0;orthogonalLoop=1;jettySize=auto;html=1;exitX=0.75;exitY=1;exitDx=0;exitDy=0;entryX=0.25;entryY=0;entryDx=0;entryDy=0;" edge="1" parent="1" source="to91vzmQ1d29D6rPc9sh-9" target="to91vzmQ1d29D6rPc9sh-4">
          <mxGeometry relative="1" as="geometry" />
        </mxCell>
        <mxCell id="to91vzmQ1d29D6rPc9sh-25" style="edgeStyle=orthogonalEdgeStyle;rounded=0;orthogonalLoop=1;jettySize=auto;html=1;exitX=0;exitY=1;exitDx=0;exitDy=0;entryX=0.25;entryY=0;entryDx=0;entryDy=0;" edge="1" parent="1" source="to91vzmQ1d29D6rPc9sh-9" target="to91vzmQ1d29D6rPc9sh-17">
          <mxGeometry relative="1" as="geometry" />
        </mxCell>
        <mxCell id="to91vzmQ1d29D6rPc9sh-9" value="Dersom alder = 0-12: pris = 100kr&lt;br&gt;Dersom alder = 12+: pris = 200kr" style="rounded=0;whiteSpace=wrap;html=1;" vertex="1" parent="1">
          <mxGeometry x="279" y="230" width="120" height="60" as="geometry" />
        </mxCell>
        <mxCell id="to91vzmQ1d29D6rPc9sh-13" value="Denne formen betyr visuelle input eller output elementer" style="rounded=1;whiteSpace=wrap;html=1;" vertex="1" parent="1">
          <mxGeometry x="279" y="40" width="120" height="60" as="geometry" />
        </mxCell>
        <mxCell id="to91vzmQ1d29D6rPc9sh-14" value="Denne formen betyr kalkulasjoner som foregår i bakgrunnen" style="rounded=0;whiteSpace=wrap;html=1;" vertex="1" parent="1">
          <mxGeometry x="429" y="40" width="120" height="60" as="geometry" />
        </mxCell>
        <mxCell id="to91vzmQ1d29D6rPc9sh-15" value="Output totalpris" style="rounded=1;whiteSpace=wrap;html=1;" vertex="1" parent="1">
          <mxGeometry x="399" y="510" width="120" height="60" as="geometry" />
        </mxCell>
        <mxCell id="to91vzmQ1d29D6rPc9sh-29" style="edgeStyle=orthogonalEdgeStyle;rounded=0;orthogonalLoop=1;jettySize=auto;html=1;exitX=0.75;exitY=1;exitDx=0;exitDy=0;entryX=0;entryY=0.5;entryDx=0;entryDy=0;" edge="1" parent="1" source="to91vzmQ1d29D6rPc9sh-17" target="to91vzmQ1d29D6rPc9sh-15">
          <mxGeometry relative="1" as="geometry" />
        </mxCell>
        <mxCell id="to91vzmQ1d29D6rPc9sh-30" style="edgeStyle=orthogonalEdgeStyle;rounded=0;orthogonalLoop=1;jettySize=auto;html=1;exitX=0.25;exitY=1;exitDx=0;exitDy=0;entryX=0.25;entryY=0;entryDx=0;entryDy=0;" edge="1" parent="1" source="to91vzmQ1d29D6rPc9sh-17" target="to91vzmQ1d29D6rPc9sh-27">
          <mxGeometry relative="1" as="geometry" />
        </mxCell>
        <mxCell id="to91vzmQ1d29D6rPc9sh-17" value="Dersom antall dager &amp;gt; 5, totalpris = 5 x pris" style="rounded=0;whiteSpace=wrap;html=1;" vertex="1" parent="1">
          <mxGeometry x="239" y="430" width="160" height="60" as="geometry" />
        </mxCell>
        <mxCell id="to91vzmQ1d29D6rPc9sh-22" value="Output prisavslag" style="rounded=1;whiteSpace=wrap;html=1;" vertex="1" parent="1">
          <mxGeometry x="399" y="590" width="120" height="60" as="geometry" />
        </mxCell>
        <mxCell id="to91vzmQ1d29D6rPc9sh-24" value="Antall dager &amp;gt; 5, er det samme som å sjekke om prisen &amp;gt; 1000 for voksne eller pris &amp;gt; 500 for barn" style="text;html=1;align=center;verticalAlign=middle;resizable=0;points=[];autosize=1;" vertex="1" parent="1">
          <mxGeometry x="170" y="120" width="540" height="20" as="geometry" />
        </mxCell>
        <mxCell id="to91vzmQ1d29D6rPc9sh-31" style="edgeStyle=orthogonalEdgeStyle;rounded=0;orthogonalLoop=1;jettySize=auto;html=1;exitX=1;exitY=0.5;exitDx=0;exitDy=0;entryX=0;entryY=0.5;entryDx=0;entryDy=0;" edge="1" parent="1" source="to91vzmQ1d29D6rPc9sh-27" target="to91vzmQ1d29D6rPc9sh-22">
          <mxGeometry relative="1" as="geometry" />
        </mxCell>
        <mxCell id="to91vzmQ1d29D6rPc9sh-27" value="Prisavslag i prosent = (1 - (ny pris / gammel pris)) x 100" style="rounded=0;whiteSpace=wrap;html=1;" vertex="1" parent="1">
          <mxGeometry x="249" y="590" width="120" height="60" as="geometry" />
        </mxCell>
        <mxCell id="to91vzmQ1d29D6rPc9sh-35" style="edgeStyle=orthogonalEdgeStyle;rounded=0;orthogonalLoop=1;jettySize=auto;html=1;exitX=0.5;exitY=1;exitDx=0;exitDy=0;entryX=1;entryY=0.5;entryDx=0;entryDy=0;" edge="1" parent="1" source="to91vzmQ1d29D6rPc9sh-33" target="to91vzmQ1d29D6rPc9sh-4">
          <mxGeometry relative="1" as="geometry" />
        </mxCell>
        <mxCell id="to91vzmQ1d29D6rPc9sh-33" value="Dersom antall dager &amp;gt; 7, antall dager = 7" style="rounded=0;whiteSpace=wrap;html=1;" vertex="1" parent="1">
          <mxGeometry x="449" y="250" width="140" height="60" as="geometry" />
        </mxCell>
      </root>
    </mxGraphModel>
  </diagram>
</mxfile>
